# Blender v2.90.0 OBJ File: 'arena.blend'
# www.blender.org
v -30.000000 0.000000 20.000000
v 30.000000 0.000000 20.000000
v -30.000000 0.000000 -20.000000
v 30.000000 0.000000 -20.000000
v -28.696560 0.000000 -18.696562
v -28.696560 0.000000 18.696562
v 28.696560 0.000000 18.696562
v 28.696560 0.000000 -18.696562
v -28.696560 2.000000 -18.696562
v -28.696560 2.000000 18.696562
v 28.696560 2.000000 18.696562
v 28.696560 2.000000 -18.696562
v -30.000000 2.000000 -20.000000
v -30.000000 2.000000 20.000000
v 30.000000 2.000000 20.000000
v 30.000000 2.000000 -20.000000
vt 0.967414 0.032586
vt 0.032586 0.967414
vt 0.032586 0.032586
vt 0.032586 0.032586
vt 0.967414 0.967414
vt 0.967414 0.967414
vt 0.000000 0.000000
vt 0.000000 0.000000
vt 0.000000 0.000000
vt 0.000000 0.000000
vt 0.000000 0.000000
vt 0.000000 0.000000
vt 0.000000 1.000000
vt 0.000000 0.000000
vt 1.000000 0.000000
vt 0.967414 0.032586
vt 1.000000 1.000000
vt 0.032586 0.967414
vt 0.000000 0.000000
vn 0.0000 1.0000 0.0000
vn 1.0000 0.0000 0.0000
vn -1.0000 0.0000 0.0000
vn 0.0000 0.0000 -1.0000
vn 0.0000 0.0000 1.0000
f 7/1/1 5/2/1 6/3/1
f 5/2/2 10/4/2 6/3/2
f 7/1/3 12/5/3 8/6/3
f 1/7/3 13/8/3 3/9/3
f 4/10/2 15/11/2 2/12/2
f 10/4/1 13/13/1 14/14/1
f 10/4/1 15/15/1 11/16/1
f 12/5/1 15/15/1 16/17/1
f 12/5/1 13/13/1 9/18/1
f 3/9/4 16/19/4 4/10/4
f 2/12/5 14/14/5 1/7/5
f 8/6/5 9/18/5 5/2/5
f 6/3/4 11/16/4 7/1/4
f 7/1/1 8/6/1 5/2/1
f 5/2/2 9/18/2 10/4/2
f 7/1/3 11/16/3 12/5/3
f 1/7/3 14/14/3 13/8/3
f 4/10/2 16/19/2 15/11/2
f 10/4/1 9/18/1 13/13/1
f 10/4/1 14/14/1 15/15/1
f 12/5/1 11/16/1 15/15/1
f 12/5/1 16/17/1 13/13/1
f 3/9/4 13/8/4 16/19/4
f 2/12/5 15/11/5 14/14/5
f 8/6/5 12/5/5 9/18/5
f 6/3/4 10/4/4 11/16/4
