# Blender v2.90.0 OBJ File: 'bullet.blend'
# www.blender.org
v 0.274187 1.348741 0.157765
v 0.274187 1.534204 0.097503
v 0.274187 1.534204 -0.097503
v 0.274187 1.348741 -0.157765
v 0.274187 1.234117 -0.000000
v 0.376708 1.400001 -0.000000
v 0.191244 1.223614 0.057311
v 0.191244 1.290987 0.150044
v 0.191244 1.400001 0.185464
v 0.191244 1.509014 0.150044
v 0.191244 1.576388 0.057311
v 0.191244 1.576388 -0.057311
v 0.191244 1.509014 -0.150044
v 0.191244 1.400001 -0.185464
v 0.191244 1.290987 -0.150044
v 0.191244 1.223614 -0.057311
v 0.191244 1.223614 0.057311
v 0.191244 1.223614 -0.057311
v 0.191244 1.400001 0.185464
v 0.191244 1.290987 0.150044
v 0.191244 1.576388 0.057311
v 0.191244 1.509014 0.150044
v 0.191244 1.509014 -0.150044
v 0.191244 1.576388 -0.057311
v 0.191244 1.290987 -0.150044
v 0.191244 1.400001 -0.185464
v 0.288749 1.272366 0.092732
v 0.288750 1.448753 0.150043
v 0.288749 1.557765 -0.000000
v 0.288750 1.448753 -0.150043
v 0.288749 1.272366 -0.092732
v 0.349010 1.369871 0.092731
v 0.349010 1.302497 -0.000000
v 0.349010 1.478883 0.057311
v 0.349010 1.478883 -0.057311
v 0.349010 1.369871 -0.092731
v -0.347666 1.223614 0.057311
v -0.347666 1.223614 -0.057311
v -0.347666 1.400001 0.185464
v -0.347666 1.290987 0.150044
v -0.347666 1.576388 0.057311
v -0.347666 1.509014 0.150044
v -0.347666 1.509014 -0.150044
v -0.347666 1.576388 -0.057311
v -0.347666 1.290987 -0.150044
v -0.347666 1.400001 -0.185464
vt 0.818181 0.314921
vt 0.727272 0.314921
vt 0.772726 0.393651
vt 1.000000 0.314921
vt 0.909091 0.314921
vt 0.954545 0.393651
vt 0.272727 0.314921
vt 0.181818 0.314921
vt 0.227273 0.393651
vt 0.454545 0.314921
vt 0.363636 0.314921
vt 0.409090 0.393651
vt 0.636363 0.314921
vt 0.545454 0.314921
vt 0.590909 0.393651
vt 0.500000 0.393651
vt 0.545454 0.472382
vt 0.318182 0.393651
vt 0.363636 0.472382
vt 0.136363 0.393651
vt 0.181818 0.472382
vt 0.090909 0.314921
vt 0.863635 0.393651
vt 0.909090 0.472382
vt 0.681818 0.393651
vt 0.727272 0.472382
vt 0.590909 0.236191
vt 0.500000 0.236191
vt 0.409090 0.236191
vt 0.318182 0.236191
vt 0.227273 0.236191
vt 0.136363 0.236191
vt 0.954545 0.236191
vt 0.863635 0.236191
vt 0.772726 0.236191
vt 0.681818 0.236191
vt 0.318182 0.236191
vt 0.227273 0.236191
vt 0.500000 0.236191
vt 0.409090 0.236191
vt 0.590909 0.236191
vt 0.045454 0.236191
vt 0.136363 0.236191
vt 0.045454 0.236191
vt 0.863635 0.236191
vt 0.772726 0.236191
vt 0.954545 0.236191
vt 0.681818 0.236191
vt 0.772726 0.236191
vt 0.863635 0.236191
vt 0.318182 0.236191
vt 0.500000 0.236191
vt 0.409090 0.236191
vt 0.681818 0.236191
vt 0.136363 0.236191
vt 0.045454 0.236191
vt 0.227273 0.236191
vt 0.590909 0.236191
vt 0.954545 0.236191
vn 0.6617 -0.4089 0.6284
vn 0.6617 0.4713 0.5831
vn 0.6617 0.7002 -0.2680
vn 0.6617 -0.0385 -0.7488
vn 0.6617 -0.7240 -0.1947
vn 0.9435 -0.2680 -0.1947
vn 0.7947 -0.4911 -0.3568
vn 0.6617 -0.4089 -0.6284
vn 0.9435 0.1024 -0.3151
vn 0.7947 0.1876 -0.5773
vn 0.6617 0.4713 -0.5831
vn 0.9435 0.3313 0.0000
vn 0.7947 0.6071 0.0000
vn 0.6617 0.7002 0.2680
vn 0.9435 0.1024 0.3151
vn 0.7947 0.1876 0.5773
vn 0.6617 -0.0385 0.7488
vn 0.9435 -0.2680 0.1947
vn 0.7947 -0.4911 0.3568
vn 0.6617 -0.7240 0.1947
vn 0.3304 -0.8897 -0.3151
vn 0.1876 -0.7947 -0.5773
vn 0.3304 -0.5746 -0.7488
vn 0.3304 0.0247 -0.9435
vn 0.1876 0.3035 -0.9342
vn 0.3304 0.5346 -0.7779
vn 0.3304 0.9050 -0.2680
vn 0.1876 0.9822 0.0000
vn 0.3304 0.9050 0.2680
vn 0.3304 0.5346 0.7779
vn 0.1876 0.3035 0.9342
vn 0.3304 0.0247 0.9435
vn 0.3304 -0.5746 0.7488
vn 0.1876 -0.7947 0.5773
vn 0.3304 -0.8897 0.3151
vn 0.1256 -0.3066 -0.9435
vn 0.0000 0.0000 1.0000
vn 0.1256 0.8026 -0.5831
vn 0.1256 0.8026 0.5831
vn 0.1256 -0.3066 0.9435
vn 0.1256 -0.9921 0.0000
vn 0.0000 -0.3090 0.9511
vn -1.0000 0.0000 0.0000
vn 0.0000 0.3090 -0.9511
vn 0.0000 -0.8090 0.5878
vn 0.0000 0.8090 0.5878
vn 0.0000 -0.8090 -0.5878
vn 0.0000 0.3090 0.9511
vn 0.0000 0.8090 -0.5878
vn 0.0000 -1.0000 0.0000
vn 0.0000 1.0000 0.0000
vn 0.0000 -0.3090 -0.9511
f 1/1/1 27/2/1 32/3/1
f 2/4/2 28/5/2 34/6/2
f 3/7/3 29/8/3 35/9/3
f 4/10/4 30/11/4 36/12/4
f 5/13/5 31/14/5 33/15/5
f 33/15/6 36/16/6 6/17/6
f 33/15/7 31/14/7 36/16/7
f 31/14/8 4/10/8 36/16/8
f 36/12/9 35/18/9 6/19/9
f 36/12/10 30/11/10 35/18/10
f 30/11/11 3/7/11 35/18/11
f 35/9/12 34/20/12 6/21/12
f 35/9/13 29/8/13 34/20/13
f 29/8/14 2/22/14 34/20/14
f 34/6/15 32/23/15 6/24/15
f 34/6/16 28/5/16 32/23/16
f 28/5/17 1/1/17 32/23/17
f 32/3/18 33/25/18 6/26/18
f 32/3/19 27/2/19 33/25/19
f 27/2/20 5/13/20 33/25/20
f 18/27/21 31/14/21 5/13/21
f 18/27/22 25/28/22 31/14/22
f 25/28/23 4/10/23 31/14/23
f 26/29/24 30/11/24 4/10/24
f 26/29/25 23/30/25 30/11/25
f 23/30/26 3/7/26 30/11/26
f 24/31/27 29/8/27 3/7/27
f 24/31/28 21/32/28 29/8/28
f 21/32/29 2/22/29 29/8/29
f 22/33/30 28/5/30 2/4/30
f 22/33/31 19/34/31 28/5/31
f 19/34/32 1/1/32 28/5/32
f 20/35/33 27/2/33 1/1/33
f 20/35/34 17/36/34 27/2/34
f 17/36/35 5/13/35 27/2/35
f 25/28/36 26/29/36 4/10/36
f 24/31/37 13/37/37 12/38/37
f 26/29/37 15/39/37 14/40/37
f 23/30/38 24/31/38 3/7/38
f 25/28/37 16/41/37 15/39/37
f 21/32/39 22/42/39 2/22/39
f 23/30/37 14/40/37 13/37/37
f 19/34/40 20/35/40 1/1/40
f 22/42/37 11/43/37 10/44/37
f 17/36/41 18/27/41 5/13/41
f 20/35/37 9/45/37 8/46/37
f 21/32/37 12/38/37 11/43/37
f 19/34/37 10/47/37 9/45/37
f 18/27/37 7/48/37 16/41/37
f 9/45/42 40/49/42 8/46/42
f 17/36/37 8/46/37 7/48/37
f 39/50/43 43/51/43 45/52/43
f 13/37/44 46/53/44 43/51/44
f 8/46/45 37/54/45 7/48/45
f 10/44/46 41/55/46 42/56/46
f 16/41/47 45/52/47 15/39/47
f 10/47/48 39/50/48 9/45/48
f 13/37/49 44/57/49 12/38/49
f 7/48/50 38/58/50 16/41/50
f 12/38/51 41/55/51 11/43/51
f 15/39/52 46/53/52 14/40/52
f 24/31/37 23/30/37 13/37/37
f 26/29/37 25/28/37 15/39/37
f 25/28/37 18/27/37 16/41/37
f 23/30/37 26/29/37 14/40/37
f 22/42/37 21/32/37 11/43/37
f 20/35/37 19/34/37 9/45/37
f 21/32/37 24/31/37 12/38/37
f 19/34/37 22/33/37 10/47/37
f 18/27/37 17/36/37 7/48/37
f 9/45/42 39/50/42 40/49/42
f 17/36/37 20/35/37 8/46/37
f 45/52/43 38/58/43 39/50/43
f 38/58/43 37/54/43 39/50/43
f 37/54/43 40/49/43 39/50/43
f 39/50/43 42/59/43 41/55/43
f 41/55/43 44/57/43 43/51/43
f 43/51/43 46/53/43 45/52/43
f 39/50/43 41/55/43 43/51/43
f 13/37/44 14/40/44 46/53/44
f 8/46/45 40/49/45 37/54/45
f 10/44/46 11/43/46 41/55/46
f 16/41/47 38/58/47 45/52/47
f 10/47/48 42/59/48 39/50/48
f 13/37/49 43/51/49 44/57/49
f 7/48/50 37/54/50 38/58/50
f 12/38/51 44/57/51 41/55/51
f 15/39/52 45/52/52 46/53/52
