# Blender v2.90.0 OBJ File: 'tank.blend'
# www.blender.org
v 0.666507 1.169803 -0.228545
v 1.000000 0.000000 -1.000000
v 0.666507 1.169803 0.228545
v 1.000000 0.000000 1.000000
v -0.666507 1.000000 -0.666507
v -1.000000 0.000000 -1.000000
v -0.666507 1.000000 0.666507
v -1.000000 0.000000 1.000000
v 1.000000 1.000000 1.000000
v -1.000000 1.000000 1.000000
v 1.000000 1.000000 -1.000000
v -1.000000 1.000000 -1.000000
v 0.666507 1.626893 0.228545
v -0.666507 1.796696 0.666507
v 0.666507 1.626893 -0.228545
v -0.666507 1.796696 -0.666507
v 0.666507 1.000000 -0.666507
v 0.666507 1.000000 0.666507
v 0.666507 1.796696 -0.666507
v 0.666507 1.796696 0.666507
v 0.666507 1.075136 0.000000
v 0.666507 1.721560 -0.000000
v 0.666507 1.398348 0.323212
v 0.666507 1.398348 -0.323212
v 0.849009 1.204686 0.000000
v 0.666507 1.099739 0.123688
v 0.666507 1.696957 0.123688
v 0.666507 1.522036 0.298609
v 0.666507 1.274660 -0.298609
v 0.666507 1.099739 -0.123688
v 0.666507 1.696957 -0.123688
v 0.666507 1.274660 0.298609
v 0.666507 1.522036 -0.298609
v 0.849009 1.219428 -0.074111
v 0.849009 1.261408 -0.136940
v 0.849009 1.324237 -0.178920
v 0.849009 1.472459 0.178920
v 0.849009 1.535287 0.136940
v 0.849009 1.577268 0.074111
v 0.849009 1.261408 0.136940
v 0.849009 1.219428 0.074111
v 0.742941 1.099739 0.123688
v 0.742941 1.169803 0.228545
v 0.742941 1.696957 0.123688
v 0.742941 1.626893 0.228545
v 0.742941 1.522036 0.298609
v 0.742941 1.274660 -0.298609
v 0.742941 1.169803 -0.228545
v 0.742941 1.099739 -0.123688
v 0.742941 1.075136 0.000000
v 0.742941 1.696957 -0.123688
v 0.742941 1.721560 -0.000000
v 0.742941 1.274660 0.298609
v 0.742941 1.398348 0.323212
v 0.742941 1.522036 -0.298609
v 0.742941 1.398348 -0.323212
v 2.231553 1.324237 -0.178920
v 2.231553 1.204686 0.000000
v 2.231553 1.219428 -0.074111
v 2.231553 1.592010 -0.000000
v 2.231553 1.577268 -0.074111
v 0.742941 1.626893 -0.228545
v 2.231553 1.398348 0.193662
v 2.231553 1.324237 0.178920
v 2.231553 1.398348 -0.193662
v 2.231553 1.472459 -0.178920
v 0.849009 1.577268 -0.074111
v 0.849009 1.592010 -0.000000
v 0.849009 1.324237 0.178920
v 0.849009 1.398348 0.193662
v 0.849009 1.472459 -0.178920
v 0.849009 1.398348 -0.193662
v 0.981232 0.633333 1.000000
v 0.651875 0.800000 1.000000
v 0.651875 -0.200000 1.000000
v 0.651875 0.800000 1.400000
v 0.651875 -0.200000 1.400000
v 0.849009 1.535287 -0.136940
v -0.651875 0.800000 1.000000
v -0.651875 -0.200000 1.000000
v -0.651875 0.800000 1.400000
v -0.651875 -0.200000 1.400000
v 2.231553 1.261408 -0.136940
v 2.231553 1.472459 0.178920
v 2.231553 1.535287 0.136940
v 2.231553 1.577268 0.074111
v 2.231553 1.219428 0.074111
v 2.231553 1.261408 0.136940
v 2.231553 1.449486 0.000000
v 2.231553 1.347210 0.000000
v 2.231553 1.398348 0.000000
v 2.231553 1.398348 0.109059
v 2.231553 1.398348 -0.109059
v 2.231553 1.535287 -0.136940
v 2.231553 1.347210 -0.109059
v 2.231553 1.347210 0.109059
v 2.231553 1.449486 0.109059
v 2.231553 1.449486 -0.109059
v 1.083475 0.466667 1.000000
v 1.100000 0.300000 1.000000
v 1.083475 0.133333 1.000000
v 0.981232 -0.033333 1.000000
v -0.981232 0.633333 1.000000
v -1.083475 0.466667 1.000000
v -1.100000 0.300000 1.000000
v -1.083475 0.133333 1.000000
v -0.981232 -0.033333 1.000000
v -0.981232 -0.033333 1.400000
v -1.083475 0.133333 1.400000
v -1.100000 0.300000 1.400000
v -1.083475 0.466667 1.400000
v -0.981232 0.633333 1.400000
v 0.981232 0.633333 1.400000
v 1.083475 0.466667 1.400000
v 1.100000 0.300000 1.400000
v 1.083475 0.133333 1.400000
v 0.981232 -0.033333 1.400000
v 0.981232 0.633333 -1.400000
v 0.651875 0.800000 -1.400000
v 0.651875 -0.200000 -1.400000
v 0.651875 0.800000 -1.000000
v 0.651875 -0.200000 -1.000000
v -0.651875 0.800000 -1.400000
v -0.651875 -0.200000 -1.400000
v -0.651875 0.800000 -1.000000
v -0.651875 -0.200000 -1.000000
v 1.083475 0.466667 -1.400000
v 1.100000 0.300000 -1.400000
v 1.083475 0.133333 -1.400000
v 0.981232 -0.033333 -1.400000
v -0.981232 0.633333 -1.400000
v -1.083475 0.466667 -1.400000
v -1.100000 0.300000 -1.400000
v -1.083475 0.133333 -1.400000
v -0.981232 -0.033333 -1.400000
v -0.981232 -0.033333 -1.000000
v -1.083475 0.133333 -1.000000
v -1.100000 0.300000 -1.000000
v -1.083475 0.466667 -1.000000
v -0.981232 0.633333 -1.000000
v 0.981232 0.633333 -1.000000
v 1.083475 0.466667 -1.000000
v 1.100000 0.300000 -1.000000
v 1.083475 0.133333 -1.000000
v 0.981232 -0.033333 -1.000000
vt 0.666687 0.708313
vt 0.833313 0.708313
vt 0.833313 0.708313
vt 0.625000 0.750000
vt 0.375000 1.000000
vt 0.375000 0.750000
vt 0.625000 0.000000
vt 0.375000 0.250000
vt 0.375000 0.000000
vt 0.375000 0.500000
vt 0.125000 0.750000
vt 0.125000 0.500000
vt 0.625000 0.500000
vt 0.625000 0.250000
vt 0.666687 0.541687
vt 0.833313 0.541687
vt 0.875000 0.750000
vt 0.875000 0.500000
vt 0.833313 0.541687
vt 0.666687 0.708313
vt 0.666687 0.541687
vt 0.666687 0.593443
vt 0.666687 0.625000
vt 0.666687 0.625000
vt 0.666687 0.561886
vt 0.666687 0.656557
vt 0.666687 0.688114
vt 0.666687 0.688114
vt 0.666687 0.688114
vt 0.666687 0.561886
vt 0.666687 0.561886
vt 0.666687 0.656557
vt 0.666687 0.688114
vt 0.666687 0.688114
vt 0.666687 0.593443
vt 0.666687 0.561886
vt 0.666687 0.593443
vt 0.666687 0.561886
vt 0.666687 0.561886
vt 0.666687 0.561886
vt 0.666687 0.561886
vt 0.666687 0.688114
vt 0.666687 0.688114
vt 0.666687 0.688114
vt 0.666687 0.561886
vt 0.666687 0.688114
vt 0.666687 0.625000
vt 0.666687 0.625000
vt 0.666687 0.688114
vt 0.666687 0.593443
vt 0.666687 0.656557
vt 0.666687 0.656557
vt 0.666687 0.561886
vt 0.666687 0.561886
vt 0.666687 0.656557
vt 0.666687 0.688114
vt 0.666687 0.561886
vt 0.666687 0.688114
vt 0.666687 0.688114
vt 0.666687 0.688114
vt 0.666687 0.656557
vt 0.666687 0.625000
vt 0.666687 0.593443
vt 0.666687 0.561886
vt 0.666687 0.593443
vt 0.666687 0.625000
vt 0.666687 0.561886
vt 0.666687 0.561886
vt 0.666687 0.688114
vt 0.666687 0.625000
vt 0.666687 0.656557
vt 0.666687 0.561886
vt 0.666687 0.593443
vt 0.666687 0.688114
vt 0.666687 0.688114
vt 0.666687 0.688114
vt 0.666687 0.561886
vt 0.666687 0.561886
vt 0.666687 0.593443
vt 0.666687 0.656557
vt 0.666687 0.688114
vt 0.666687 0.561886
vt 0.666687 0.688114
vt 0.666687 0.561886
vt 0.666687 0.625000
vt 0.666687 0.593443
vt 0.666687 0.625000
vt 0.666687 0.656557
vt 0.666687 0.625000
vt 0.666687 0.656557
vt 0.666687 0.656557
vt 0.666687 0.593443
vt 0.666687 0.593443
vt 0.666687 0.625000
vt 0.625000 0.000000
vt 0.583333 0.250000
vt 0.583333 0.000000
vt 0.625000 0.250000
vt 0.583333 0.500000
vt 0.625000 0.500000
vt 0.583333 0.750000
vt 0.625000 0.750000
vt 0.583333 1.000000
vt 0.375000 0.500000
vt 0.125000 0.750000
vt 0.125000 0.500000
vt 0.875000 0.500000
vt 0.416667 0.750000
vt 0.375000 1.000000
vt 0.375000 0.750000
vt 0.458333 0.750000
vt 0.416667 1.000000
vt 0.500000 0.750000
vt 0.458333 1.000000
vt 0.541667 1.000000
vt 0.500000 1.000000
vt 0.541667 0.750000
vt 0.416667 0.500000
vt 0.458333 0.500000
vt 0.500000 0.500000
vt 0.541667 0.500000
vt 0.416667 0.250000
vt 0.375000 0.250000
vt 0.458333 0.250000
vt 0.500000 0.250000
vt 0.541667 0.250000
vt 0.416667 0.000000
vt 0.375000 0.000000
vt 0.500000 0.000000
vt 0.458333 0.000000
vt 0.541667 0.000000
vt 0.625000 0.000000
vt 0.583333 0.250000
vt 0.583333 0.000000
vt 0.625000 0.250000
vt 0.583333 0.500000
vt 0.625000 0.500000
vt 0.583333 0.750000
vt 0.625000 0.750000
vt 0.583333 1.000000
vt 0.375000 0.500000
vt 0.125000 0.750000
vt 0.125000 0.500000
vt 0.875000 0.500000
vt 0.416667 0.750000
vt 0.375000 1.000000
vt 0.375000 0.750000
vt 0.458333 0.750000
vt 0.416667 1.000000
vt 0.500000 0.750000
vt 0.458333 1.000000
vt 0.541667 1.000000
vt 0.500000 1.000000
vt 0.541667 0.750000
vt 0.416667 0.500000
vt 0.458333 0.500000
vt 0.500000 0.500000
vt 0.541667 0.500000
vt 0.416667 0.250000
vt 0.375000 0.250000
vt 0.458333 0.250000
vt 0.500000 0.250000
vt 0.541667 0.250000
vt 0.375000 0.000000
vt 0.458333 0.000000
vt 0.416667 0.000000
vt 0.500000 0.000000
vt 0.541667 0.000000
vt 0.625000 1.000000
vt 0.625000 1.000000
vt 0.875000 0.750000
vt 0.625000 1.000000
vt 0.875000 0.750000
vn 0.0000 0.0000 1.0000
vn -1.0000 0.0000 0.0000
vn 0.0000 -1.0000 0.0000
vn 1.0000 0.0000 0.0000
vn 0.0000 0.0000 -1.0000
vn 0.0000 1.0000 0.0000
vn 0.0000 -0.9808 -0.1951
vn 0.0000 -0.8315 0.5556
vn 0.0000 -0.5556 0.8315
vn 0.0000 0.8315 -0.5556
vn 0.0000 -0.8315 -0.5556
vn 0.0000 -0.1951 -0.9808
vn 0.0000 0.1951 -0.9808
vn 0.0000 0.1951 0.9808
vn 0.0000 -0.5556 -0.8315
vn 0.0000 -0.1951 0.9808
vn 0.0000 0.9808 0.1951
vn 0.0000 0.5556 0.8315
vn 0.0000 0.9808 -0.1951
vn 0.0000 -0.9808 0.1951
vn 0.0000 0.8315 0.5556
vn 0.0000 0.5556 -0.8315
vn 0.7677 -0.1250 -0.6285
vn 0.7677 -0.5328 0.3560
vn 0.7677 0.1250 -0.6285
vn 0.7677 0.1250 0.6285
vn 0.7677 -0.1250 0.6285
vn 0.7677 0.6285 0.1250
vn 0.7677 0.6285 -0.1250
vn 0.7677 -0.6285 0.1250
vn 0.7677 0.3560 -0.5328
vn 0.7677 -0.6285 -0.1250
vn 0.7677 -0.3560 0.5328
vn 0.7677 -0.3560 -0.5328
vn 0.7677 0.5328 -0.3560
vn 0.7677 0.3560 0.5328
vn 0.7677 -0.5328 -0.3560
vn 0.7677 0.5328 0.3560
vn -0.4515 0.8923 0.0000
vn 0.4515 0.8923 0.0000
vn 0.4515 -0.8923 0.0000
vn 0.8524 -0.5229 0.0000
vn 0.9951 -0.0987 0.0000
vn 0.9951 0.0987 0.0000
vn 0.8524 0.5229 0.0000
vn -0.4515 -0.8923 0.0000
vn -0.8524 -0.5229 0.0000
vn -0.9951 -0.0987 0.0000
vn -0.9951 0.0987 -0.0000
vn -0.8524 0.5229 -0.0000
f 18/1/1 14/2/1 7/3/1
f 9/4/1 8/5/1 4/6/1
f 10/7/2 6/8/2 8/9/2
f 2/10/3 8/11/3 6/12/3
f 11/13/4 4/6/4 2/10/4
f 12/14/5 2/10/5 6/8/5
f 7/3/6 9/4/6 18/1/6
f 18/1/6 11/13/6 17/15/6
f 5/16/6 10/17/6 7/3/6
f 17/15/6 12/18/6 5/16/6
f 16/19/6 20/20/6 19/21/6
f 5/16/5 19/21/5 17/15/5
f 30/22/7 50/23/7 21/24/7
f 7/3/2 16/19/2 5/16/2
f 30/22/4 17/15/4 1/25/4
f 27/26/4 20/20/4 13/27/4
f 32/28/4 18/1/4 3/29/4
f 33/30/4 19/21/4 15/31/4
f 26/32/8 43/33/8 3/29/8
f 3/29/9 53/34/9 32/28/9
f 31/35/10 62/36/10 15/31/10
f 1/25/11 49/37/11 30/22/11
f 24/38/12 47/39/12 29/40/12
f 33/30/13 56/41/13 24/38/13
f 23/42/14 46/43/14 28/44/14
f 29/40/15 48/45/15 1/25/15
f 32/28/16 54/46/16 23/42/16
f 27/26/17 52/47/17 22/48/17
f 28/44/18 45/49/18 13/27/18
f 22/48/19 51/50/19 31/35/19
f 21/24/20 42/51/20 26/32/20
f 13/27/21 44/52/21 27/26/21
f 15/31/22 55/53/22 33/30/22
f 56/41/23 36/54/23 47/39/23
f 19/21/4 31/35/4 15/31/4
f 20/20/4 22/48/4 19/21/4
f 19/21/4 24/38/4 17/15/4
f 17/15/4 29/40/4 1/25/4
f 17/15/4 21/24/4 18/1/4
f 18/1/4 26/32/4 3/29/4
f 18/1/4 23/42/4 20/20/4
f 20/20/4 28/44/4 13/27/4
f 43/33/24 41/55/24 40/56/24
f 55/53/25 72/57/25 56/41/25
f 46/43/26 70/58/26 37/59/26
f 54/46/27 69/60/27 70/58/27
f 52/47/28 39/61/28 68/62/28
f 52/47/29 67/63/29 51/50/29
f 50/23/30 41/55/30 42/51/30
f 62/36/31 71/64/31 55/53/31
f 50/23/32 34/65/32 25/66/32
f 53/34/33 40/56/33 69/60/33
f 47/39/34 35/67/34 48/45/34
f 62/36/35 67/63/35 78/68/35
f 45/49/36 37/59/36 38/69/36
f 48/45/37 34/65/37 49/37/37
f 45/49/38 39/61/38 44/52/38
f 34/65/7 58/70/7 25/66/7
f 25/66/20 87/71/20 41/55/20
f 78/68/22 66/72/22 71/64/22
f 68/62/19 61/73/19 67/63/19
f 40/56/9 64/74/9 69/60/9
f 69/60/16 63/75/16 70/58/16
f 41/55/8 88/76/8 40/56/8
f 67/63/10 94/77/10 78/68/10
f 71/64/13 65/78/13 72/57/13
f 35/67/11 59/79/11 34/65/11
f 38/69/21 86/80/21 39/61/21
f 37/59/18 85/81/18 38/69/18
f 72/57/12 57/82/12 36/54/12
f 70/58/14 84/83/14 37/59/14
f 36/54/15 83/84/15 35/67/15
f 39/61/17 60/85/17 68/62/17
f 98/86/4 94/77/4 61/73/4
f 89/87/4 86/80/4 97/88/4
f 90/89/4 92/90/4 96/91/4
f 95/92/4 65/78/4 93/93/4
f 95/92/4 91/94/4 90/89/4
f 59/79/4 90/89/4 58/70/4
f 83/84/4 95/92/4 59/79/4
f 96/91/4 63/75/4 64/74/4
f 88/76/4 96/91/4 64/74/4
f 87/71/4 90/89/4 96/91/4
f 97/88/4 85/81/4 84/83/4
f 63/75/4 97/88/4 84/83/4
f 91/94/4 97/88/4 92/90/4
f 89/87/4 61/73/4 60/85/4
f 93/93/4 89/87/4 91/94/4
f 65/78/4 98/86/4 93/93/4
f 81/95/39 103/96/39 112/97/39
f 79/98/5 73/99/5 103/96/5
f 74/100/40 113/101/40 73/99/40
f 76/102/1 112/103/1 113/101/1
f 75/104/3 82/105/3 80/106/3
f 79/107/6 76/102/6 74/100/6
f 117/108/1 82/109/1 77/110/1
f 116/111/1 108/112/1 117/108/1
f 115/113/1 109/114/1 116/111/1
f 115/113/1 111/115/1 110/116/1
f 114/117/1 112/103/1 111/115/1
f 102/118/41 77/110/41 75/104/41
f 101/119/42 117/108/42 102/118/42
f 100/120/43 116/111/43 101/119/43
f 99/121/44 115/113/44 100/120/44
f 73/99/45 114/117/45 99/121/45
f 107/122/5 75/104/5 80/123/5
f 106/124/5 102/118/5 107/122/5
f 105/125/5 101/119/5 106/124/5
f 104/126/5 100/120/5 105/125/5
f 103/96/5 99/121/5 104/126/5
f 108/127/46 80/123/46 82/128/46
f 108/127/47 106/124/47 107/122/47
f 110/129/48 106/124/48 109/130/48
f 111/131/49 105/125/49 110/129/49
f 112/97/50 104/126/50 111/131/50
f 125/132/39 131/133/39 140/134/39
f 123/135/5 118/136/5 131/133/5
f 119/137/40 141/138/40 118/136/40
f 121/139/1 140/140/1 141/138/1
f 120/141/3 126/142/3 124/143/3
f 123/144/6 121/139/6 119/137/6
f 145/145/1 126/146/1 122/147/1
f 144/148/1 136/149/1 145/145/1
f 143/150/1 137/151/1 144/148/1
f 143/150/1 139/152/1 138/153/1
f 142/154/1 140/140/1 139/152/1
f 130/155/41 122/147/41 120/141/41
f 129/156/42 145/145/42 130/155/42
f 128/157/43 144/148/43 129/156/43
f 127/158/44 143/150/44 128/157/44
f 118/136/45 142/154/45 127/158/45
f 135/159/5 120/141/5 124/160/5
f 134/161/5 130/155/5 135/159/5
f 133/162/5 129/156/5 134/161/5
f 132/163/5 128/157/5 133/162/5
f 131/133/5 127/158/5 132/163/5
f 126/164/46 135/159/46 124/160/46
f 137/165/47 135/159/47 136/166/47
f 138/167/48 134/161/48 137/165/48
f 139/168/49 133/162/49 138/167/49
f 140/134/50 132/163/50 139/168/50
f 18/1/1 20/20/1 14/2/1
f 9/4/1 10/169/1 8/5/1
f 10/7/2 12/14/2 6/8/2
f 2/10/3 4/6/3 8/11/3
f 11/13/4 9/4/4 4/6/4
f 12/14/5 11/13/5 2/10/5
f 7/3/6 10/17/6 9/4/6
f 18/1/6 9/4/6 11/13/6
f 5/16/6 12/18/6 10/17/6
f 17/15/6 11/13/6 12/18/6
f 16/19/6 14/2/6 20/20/6
f 5/16/5 16/19/5 19/21/5
f 30/22/7 49/37/7 50/23/7
f 7/3/2 14/2/2 16/19/2
f 30/22/4 21/24/4 17/15/4
f 27/26/4 22/48/4 20/20/4
f 32/28/4 23/42/4 18/1/4
f 33/30/4 24/38/4 19/21/4
f 26/32/8 42/51/8 43/33/8
f 3/29/9 43/33/9 53/34/9
f 31/35/10 51/50/10 62/36/10
f 1/25/11 48/45/11 49/37/11
f 24/38/12 56/41/12 47/39/12
f 33/30/13 55/53/13 56/41/13
f 23/42/14 54/46/14 46/43/14
f 29/40/15 47/39/15 48/45/15
f 32/28/16 53/34/16 54/46/16
f 27/26/17 44/52/17 52/47/17
f 28/44/18 46/43/18 45/49/18
f 22/48/19 52/47/19 51/50/19
f 21/24/20 50/23/20 42/51/20
f 13/27/21 45/49/21 44/52/21
f 15/31/22 62/36/22 55/53/22
f 56/41/23 72/57/23 36/54/23
f 19/21/4 22/48/4 31/35/4
f 17/15/4 24/38/4 29/40/4
f 18/1/4 21/24/4 26/32/4
f 20/20/4 23/42/4 28/44/4
f 43/33/24 42/51/24 41/55/24
f 55/53/25 71/64/25 72/57/25
f 46/43/26 54/46/26 70/58/26
f 54/46/27 53/34/27 69/60/27
f 52/47/28 44/52/28 39/61/28
f 52/47/29 68/62/29 67/63/29
f 50/23/30 25/66/30 41/55/30
f 62/36/31 78/68/31 71/64/31
f 50/23/32 49/37/32 34/65/32
f 53/34/33 43/33/33 40/56/33
f 47/39/34 36/54/34 35/67/34
f 62/36/35 51/50/35 67/63/35
f 45/49/36 46/43/36 37/59/36
f 48/45/37 35/67/37 34/65/37
f 45/49/38 38/69/38 39/61/38
f 34/65/7 59/79/7 58/70/7
f 25/66/20 58/70/20 87/71/20
f 78/68/22 94/77/22 66/72/22
f 68/62/19 60/85/19 61/73/19
f 40/56/9 88/76/9 64/74/9
f 69/60/16 64/74/16 63/75/16
f 41/55/8 87/71/8 88/76/8
f 67/63/10 61/73/10 94/77/10
f 71/64/13 66/72/13 65/78/13
f 35/67/11 83/84/11 59/79/11
f 38/69/21 85/81/21 86/80/21
f 37/59/18 84/83/18 85/81/18
f 72/57/12 65/78/12 57/82/12
f 70/58/14 63/75/14 84/83/14
f 36/54/15 57/82/15 83/84/15
f 39/61/17 86/80/17 60/85/17
f 98/86/4 66/72/4 94/77/4
f 89/87/4 60/85/4 86/80/4
f 90/89/4 91/94/4 92/90/4
f 95/92/4 57/82/4 65/78/4
f 95/92/4 93/93/4 91/94/4
f 59/79/4 95/92/4 90/89/4
f 83/84/4 57/82/4 95/92/4
f 96/91/4 92/90/4 63/75/4
f 88/76/4 87/71/4 96/91/4
f 87/71/4 58/70/4 90/89/4
f 97/88/4 86/80/4 85/81/4
f 63/75/4 92/90/4 97/88/4
f 91/94/4 89/87/4 97/88/4
f 89/87/4 98/86/4 61/73/4
f 93/93/4 98/86/4 89/87/4
f 65/78/4 66/72/4 98/86/4
f 81/95/39 79/98/39 103/96/39
f 79/98/5 74/100/5 73/99/5
f 74/100/40 76/102/40 113/101/40
f 76/102/1 81/170/1 112/103/1
f 75/104/3 77/110/3 82/105/3
f 79/107/6 81/171/6 76/102/6
f 117/108/1 108/112/1 82/109/1
f 116/111/1 109/114/1 108/112/1
f 115/113/1 110/116/1 109/114/1
f 115/113/1 114/117/1 111/115/1
f 114/117/1 113/101/1 112/103/1
f 102/118/41 117/108/41 77/110/41
f 101/119/42 116/111/42 117/108/42
f 100/120/43 115/113/43 116/111/43
f 99/121/44 114/117/44 115/113/44
f 73/99/45 113/101/45 114/117/45
f 107/122/5 102/118/5 75/104/5
f 106/124/5 101/119/5 102/118/5
f 105/125/5 100/120/5 101/119/5
f 104/126/5 99/121/5 100/120/5
f 103/96/5 73/99/5 99/121/5
f 108/127/46 107/122/46 80/123/46
f 108/127/47 109/130/47 106/124/47
f 110/129/48 105/125/48 106/124/48
f 111/131/49 104/126/49 105/125/49
f 112/97/50 103/96/50 104/126/50
f 125/132/39 123/135/39 131/133/39
f 123/135/5 119/137/5 118/136/5
f 119/137/40 121/139/40 141/138/40
f 121/139/1 125/172/1 140/140/1
f 120/141/3 122/147/3 126/142/3
f 123/144/6 125/173/6 121/139/6
f 145/145/1 136/149/1 126/146/1
f 144/148/1 137/151/1 136/149/1
f 143/150/1 138/153/1 137/151/1
f 143/150/1 142/154/1 139/152/1
f 142/154/1 141/138/1 140/140/1
f 130/155/41 145/145/41 122/147/41
f 129/156/42 144/148/42 145/145/42
f 128/157/43 143/150/43 144/148/43
f 127/158/44 142/154/44 143/150/44
f 118/136/45 141/138/45 142/154/45
f 135/159/5 130/155/5 120/141/5
f 134/161/5 129/156/5 130/155/5
f 133/162/5 128/157/5 129/156/5
f 132/163/5 127/158/5 128/157/5
f 131/133/5 118/136/5 127/158/5
f 126/164/46 136/166/46 135/159/46
f 137/165/47 134/161/47 135/159/47
f 138/167/48 133/162/48 134/161/48
f 139/168/49 132/163/49 133/162/49
f 140/134/50 131/133/50 132/163/50
